<mxfile host="app.diagrams.net" agent="Mozilla/5.0 (Windows NT 10.0; Win64; x64) AppleWebKit/537.36 (KHTML, like Gecko) Chrome/134.0.0.0 Safari/537.36" version="26.1.1">
  <diagram name="Page-1" id="heevc9FqfHnX-vxkBVfE">
    <mxGraphModel dx="4200" dy="2228" grid="1" gridSize="10" guides="1" tooltips="1" connect="1" arrows="1" fold="1" page="1" pageScale="1" pageWidth="850" pageHeight="1100" math="0" shadow="0">
      <root>
        <mxCell id="0" />
        <mxCell id="1" parent="0" />
        <mxCell id="-knv8LhlDEdRXh0DjIZ5-8" style="edgeStyle=orthogonalEdgeStyle;rounded=0;orthogonalLoop=1;jettySize=auto;html=1;" edge="1" parent="1" source="-knv8LhlDEdRXh0DjIZ5-1" target="-knv8LhlDEdRXh0DjIZ5-2">
          <mxGeometry relative="1" as="geometry" />
        </mxCell>
        <mxCell id="-knv8LhlDEdRXh0DjIZ5-9" style="edgeStyle=orthogonalEdgeStyle;rounded=0;orthogonalLoop=1;jettySize=auto;html=1;" edge="1" parent="1" source="-knv8LhlDEdRXh0DjIZ5-1" target="-knv8LhlDEdRXh0DjIZ5-5">
          <mxGeometry relative="1" as="geometry" />
        </mxCell>
        <mxCell id="-knv8LhlDEdRXh0DjIZ5-15" style="edgeStyle=orthogonalEdgeStyle;rounded=0;orthogonalLoop=1;jettySize=auto;html=1;entryX=0.452;entryY=0.946;entryDx=0;entryDy=0;entryPerimeter=0;" edge="1" parent="1" source="-knv8LhlDEdRXh0DjIZ5-1" target="-knv8LhlDEdRXh0DjIZ5-4">
          <mxGeometry relative="1" as="geometry">
            <mxPoint x="420" y="370" as="targetPoint" />
          </mxGeometry>
        </mxCell>
        <mxCell id="-knv8LhlDEdRXh0DjIZ5-1" value="Modern English Grammar" style="rounded=1;whiteSpace=wrap;html=1;" vertex="1" parent="1">
          <mxGeometry x="360" y="520" width="120" height="60" as="geometry" />
        </mxCell>
        <mxCell id="-knv8LhlDEdRXh0DjIZ5-2" value="Noun" style="rounded=1;whiteSpace=wrap;html=1;" vertex="1" parent="1">
          <mxGeometry x="120" y="520" width="120" height="60" as="geometry" />
        </mxCell>
        <mxCell id="-knv8LhlDEdRXh0DjIZ5-5" value="Pronouns" style="rounded=1;whiteSpace=wrap;html=1;" vertex="1" parent="1">
          <mxGeometry x="590" y="520" width="120" height="60" as="geometry" />
        </mxCell>
        <mxCell id="-knv8LhlDEdRXh0DjIZ5-11" value="Modifier" style="rounded=1;whiteSpace=wrap;html=1;" vertex="1" parent="1">
          <mxGeometry x="365" y="740" width="120" height="60" as="geometry" />
        </mxCell>
        <mxCell id="-knv8LhlDEdRXh0DjIZ5-12" style="edgeStyle=orthogonalEdgeStyle;rounded=0;orthogonalLoop=1;jettySize=auto;html=1;entryX=0.452;entryY=0.082;entryDx=0;entryDy=0;entryPerimeter=0;" edge="1" parent="1" source="-knv8LhlDEdRXh0DjIZ5-1" target="-knv8LhlDEdRXh0DjIZ5-11">
          <mxGeometry relative="1" as="geometry" />
        </mxCell>
        <mxCell id="-knv8LhlDEdRXh0DjIZ5-4" value="Verb" style="rounded=1;whiteSpace=wrap;html=1;" vertex="1" parent="1">
          <mxGeometry x="365" y="300" width="120" height="60" as="geometry" />
        </mxCell>
      </root>
    </mxGraphModel>
  </diagram>
</mxfile>
